<svg width="175" height="121" viewBox="0 0 175 121" fill="none" xmlns="http://www.w3.org/2000/svg">
<path d="M173.613 107.119C173.756 107.123 173.896 107.156 174.027 107.215C174.157 107.273 174.275 107.357 174.373 107.461C174.471 107.565 174.547 107.687 174.598 107.819C174.648 107.952 174.671 108.093 174.665 108.234C174.66 108.375 174.626 108.513 174.566 108.64C174.505 108.767 174.42 108.881 174.314 108.974C174.209 109.068 174.085 109.139 173.95 109.185C173.816 109.23 173.673 109.248 173.53 109.238L140.656 107.706C140.372 107.694 140.103 107.571 139.908 107.363C139.713 107.156 139.609 106.882 139.618 106.602C139.627 106.321 139.748 106.057 139.955 105.867C140.162 105.677 140.438 105.578 140.722 105.59L173.613 107.119Z" fill="black"/>
<path d="M171.682 81.7038C171.96 81.6562 172.245 81.7214 172.474 81.8852C172.704 82.049 172.858 82.2979 172.904 82.5772C172.95 82.8565 172.884 83.1434 172.72 83.3746C172.556 83.6058 172.307 83.7624 172.029 83.8101L146.225 88.3066C146.087 88.3299 145.946 88.3257 145.809 88.2941C145.673 88.2625 145.544 88.2042 145.43 88.1225C145.316 88.0408 145.22 87.9374 145.146 87.818C145.072 87.6986 145.023 87.5657 145 87.4268C144.955 87.1463 145.022 86.8585 145.188 86.6268C145.353 86.3951 145.603 86.2385 145.882 86.1913L171.682 81.7038Z" fill="black"/>
<path d="M163.938 57.5798C164.198 57.4727 164.49 57.4735 164.749 57.582C165.009 57.6905 165.214 57.8978 165.32 58.1584C165.427 58.4189 165.425 58.7113 165.316 58.9712C165.208 59.2311 165 59.4374 164.74 59.5444L134.754 71.9702C134.626 72.025 134.488 72.0536 134.349 72.0543C134.21 72.0551 134.072 72.028 133.944 71.9746C133.816 71.9212 133.699 71.8426 133.602 71.7434C133.504 71.6443 133.428 71.5265 133.376 71.3971C133.269 71.1382 133.27 70.8471 133.377 70.5878C133.484 70.3285 133.689 70.1223 133.948 70.0144L163.938 57.5798Z" fill="black"/>
<path d="M149.485 35.1647C149.699 34.9873 149.975 34.9023 150.252 34.9284C150.529 34.9544 150.785 35.0895 150.962 35.3037C151.14 35.518 151.225 35.7939 151.199 36.0709C151.173 36.3478 151.038 36.6031 150.824 36.7805L129.995 53.9374C129.89 54.0256 129.768 54.0922 129.637 54.1333C129.506 54.1744 129.368 54.1891 129.231 54.1767C129.094 54.1643 128.961 54.125 128.84 54.061C128.718 53.997 128.61 53.9096 128.522 53.8038C128.346 53.5885 128.261 53.3124 128.286 53.0352C128.312 52.7579 128.446 52.502 128.659 52.3229L149.485 35.1647Z" fill="black"/>
<path d="M129.194 17.7543C129.272 17.6386 129.372 17.5393 129.487 17.4623C129.603 17.3852 129.733 17.3317 129.869 17.305C130.005 17.2783 130.145 17.2787 130.28 17.3065C130.415 17.3342 130.544 17.3886 130.658 17.4665C130.89 17.6257 131.049 17.8709 131.102 18.1491C131.155 18.4272 131.097 18.716 130.94 18.953L112.558 46.0992C112.48 46.2153 112.38 46.3149 112.265 46.3924C112.149 46.4699 112.019 46.5237 111.883 46.5507C111.747 46.5777 111.607 46.5774 111.471 46.5498C111.336 46.5222 111.207 46.4679 111.093 46.3899C110.86 46.2305 110.7 45.9846 110.647 45.7058C110.595 45.4269 110.654 45.1375 110.811 44.9004L129.194 17.7543Z" fill="black"/>
<path d="M106.977 6.91486C107.029 6.78586 107.104 6.6669 107.195 6.5648C107.286 6.46269 107.392 6.37945 107.508 6.31985C107.624 6.26025 107.746 6.22546 107.868 6.21748C107.991 6.2095 108.111 6.22849 108.221 6.27335C108.442 6.36849 108.61 6.56109 108.69 6.80985C108.77 7.05861 108.754 7.34371 108.648 7.604L98.004 32.9234C97.8886 33.1689 97.6976 33.3662 97.4704 33.4746C97.2431 33.5831 96.9969 33.5946 96.7825 33.5066C96.5681 33.4186 96.4019 33.2379 96.318 33.0018C96.2341 32.7656 96.2389 32.492 96.3316 32.2373L106.977 6.91486Z" fill="black"/>
<path d="M81.0403 1.23697C81.0591 1.09919 81.1054 0.966856 81.1766 0.847573C81.2478 0.72829 81.3424 0.624461 81.455 0.542061C81.5677 0.459661 81.696 0.400337 81.8327 0.367523C81.9693 0.334708 82.1116 0.329021 82.2513 0.350851C82.5358 0.392641 82.7935 0.543972 82.9678 0.771609C83.142 0.999246 83.2186 1.28461 83.1807 1.56505L79.4339 29.0636C79.3918 29.3414 79.2399 29.59 79.0114 29.7553C78.7829 29.9205 78.4962 29.989 78.2139 29.9458C78.0738 29.9258 77.9389 29.8785 77.8168 29.8067C77.6948 29.7349 77.5881 29.64 77.503 29.5276C77.4179 29.4152 77.3561 29.2875 77.3211 29.152C77.2862 29.0164 77.2788 28.8758 77.2995 28.7382L81.0403 1.23697Z" fill="black"/>
<path d="M55.2486 2.30582C55.2194 2.03337 55.3001 1.76111 55.473 1.54892C55.6458 1.33674 55.8967 1.20203 56.1703 1.1744C56.4439 1.14677 56.7179 1.2285 56.932 1.40161C57.1461 1.57472 57.2828 1.82503 57.312 2.09748L60.3922 29.6014C60.4071 29.7361 60.3951 29.8724 60.3569 30.0022C60.3186 30.1321 60.255 30.253 60.1695 30.3581C60.0841 30.4632 59.9785 30.5503 59.8589 30.6145C59.7393 30.6786 59.608 30.7185 59.4726 30.732C59.3365 30.747 59.1987 30.7351 59.0669 30.6972C58.9352 30.6592 58.8121 30.5958 58.7047 30.5106C58.5974 30.4255 58.5078 30.3202 58.4411 30.2007C58.3745 30.0813 58.3321 29.9501 58.3163 29.8146L55.2486 2.30582Z" fill="black"/>
<path d="M31.2817 7.97588C31.2329 7.84035 31.212 7.69564 31.2204 7.55066C31.2288 7.40568 31.2662 7.2635 31.3304 7.1328C31.3945 7.0021 31.4841 6.88567 31.5936 6.79063C31.7031 6.6956 31.8302 6.62397 31.9671 6.58016C32.1039 6.53634 32.2477 6.52127 32.3896 6.53584C32.5314 6.55042 32.6684 6.59435 32.792 6.66493C32.9157 6.73551 33.0234 6.83123 33.1085 6.94626C33.1937 7.0613 33.2545 7.19321 33.2873 7.33388L40.1694 31.116C40.2468 31.3863 40.2148 31.6785 40.0805 31.9284C39.9461 32.1783 39.7204 32.3653 39.4531 32.4484C39.1857 32.5316 38.8985 32.5039 38.6547 32.3716C38.411 32.2392 38.2305 32.0131 38.1531 31.7428L31.2817 7.97588Z" fill="black"/>
<path d="M8.8367 18.6292C8.7126 18.3724 8.69252 18.0752 8.78071 17.8004C8.86889 17.5257 9.05844 17.2948 9.3093 17.1567C9.56243 17.026 9.85445 17.0003 10.1228 17.0851C10.3912 17.1698 10.6147 17.3583 10.7453 17.6102L25.6349 47.1036C25.6984 47.2295 25.7367 47.3672 25.7475 47.5089C25.7583 47.6505 25.7415 47.7934 25.698 47.9292C25.6544 48.0651 25.5851 48.1914 25.4939 48.3008C25.4026 48.4103 25.2913 48.5007 25.1662 48.567C25.0412 48.6333 24.9048 48.6742 24.765 48.6873C24.6251 48.7004 24.4845 48.6855 24.3512 48.6434C24.2178 48.6013 24.0944 48.5328 23.9878 48.4419C23.8813 48.351 23.7938 48.2394 23.7303 48.1136L8.8367 18.6292Z" fill="black"/>
</svg>
