<svg width="201" height="80" viewBox="0 0 201 80" fill="none" xmlns="http://www.w3.org/2000/svg">
<path d="M201 0.201576C189.645 -0.830682 68.5269 2.35211 9.38709 4.07254C3.70967 4.23646 3.58064 49.3022 4.2258 71.8145C66.5914 70.7392 191.968 67.8145 194.548 64.7177C197.129 61.621 199.925 20.4166 201 0.201576Z" fill="#F7F5F0"/>
<path d="M1 7.94346C25.5161 4.93271 79.1935 -0.185572 97.7742 3.42733C116.355 7.04023 173.473 4.93271 199.71 3.42733" stroke="black" stroke-width="1.5" stroke-linecap="round"/>
<path d="M4.87097 2.13708C6.37635 25.3629 8.48387 72.2016 4.87097 73.75" stroke="black" stroke-width="1.5" stroke-linecap="round"/>
<path d="M3.58066 78.2661C24.6559 74.8253 71.7097 68.9758 91.3226 73.1048C110.936 77.2339 163.581 71.8145 187.452 68.5887" stroke="black" stroke-width="1.5" stroke-linecap="round"/>
<path d="M199.065 0.846802C200.14 22.7823 200.742 66.7823 194.548 67.2984" stroke="black" stroke-width="1.5" stroke-linecap="round"/>
</svg>
