<svg width="214" height="184" viewBox="0 0 214 184" fill="none" xmlns="http://www.w3.org/2000/svg">
<path fill-rule="evenodd" clip-rule="evenodd" d="M48.0093 159.22C47.7688 159.775 47.824 160.522 48.4729 160.744C49.1811 160.997 49.9704 160.425 50.2651 159.797L50.3143 159.675L50.3426 159.643C50.4386 159.472 50.5206 159.278 50.6024 159.108C50.8344 158.612 51.0683 158.118 51.2972 157.63C52.112 155.885 52.9187 154.153 53.7264 152.408C56.4927 146.432 59.2578 140.456 62.0219 134.482C70.2353 116.649 78.4498 98.8142 86.6654 80.9786C94.9462 62.956 103.237 44.9357 111.539 26.9177C114.29 20.9573 117.043 14.9956 119.797 9.03266C120.577 7.34363 121.36 5.65848 122.148 3.97722C122.361 3.51883 122.573 3.07303 122.79 2.62153C122.86 2.48077 122.946 2.26727 123.052 2.09537C123.286 1.54782 123.225 0.79606 122.589 0.571694C121.876 0.323798 121.081 0.890902 120.792 1.52452L120.741 1.64793L120.719 1.67266C120.618 1.84955 120.536 2.04308 120.453 2.21522C120.221 2.7107 119.987 3.20453 119.76 3.69075C118.94 5.42542 118.136 7.16985 117.33 8.91261C114.555 14.8865 111.79 20.8621 109.035 26.8395C100.819 44.6751 92.6064 62.5075 84.3963 80.3367C76.1021 98.3543 67.8049 116.371 59.5046 134.388C56.755 140.346 54.0043 146.305 51.2524 152.266C50.458 153.941 49.6867 155.641 48.895 157.329C48.683 157.774 48.47 158.233 48.253 158.684C48.1971 158.84 48.1054 159.049 48.0093 159.22Z" fill="black"/>
<path fill-rule="evenodd" clip-rule="evenodd" d="M42.9335 160.132C43.0122 159.969 43.0773 159.791 43.135 159.637C43.328 159.174 43.5153 158.707 43.7102 158.246C44.3798 156.606 45.0329 154.961 45.6918 153.321C47.9522 147.707 50.203 142.086 52.4444 136.455C59.1294 119.712 65.7997 102.963 72.4553 86.2098C79.1941 69.2716 85.9374 52.3373 92.6851 35.4069C94.9175 29.8024 97.1578 24.2015 99.4061 18.6043C100.04 17.0199 100.679 15.4297 101.331 13.8477C101.501 13.4226 101.675 12.9972 101.854 12.5662C101.915 12.4314 101.978 12.2445 102.067 12.0809C102.282 11.5167 102.172 10.8095 101.518 10.6167C100.779 10.4135 100.01 11.013 99.7454 11.6682C80.0004 61.0686 60.2645 110.469 40.5374 159.869C40.3102 160.436 40.4042 161.173 41.0863 161.357C41.8164 161.562 42.5909 160.957 42.8533 160.3L42.9152 160.153L42.9335 160.132Z" fill="black"/>
<path fill-rule="evenodd" clip-rule="evenodd" d="M82.3073 171.341C82.4337 171.196 82.5405 171.024 82.6536 170.868C82.9791 170.431 83.294 169.998 83.6178 169.562C84.7329 168.023 85.8514 166.479 86.9679 164.934C90.7767 159.657 94.5782 154.37 98.3726 149.073C109.696 133.314 121.005 117.551 132.298 101.783C143.74 85.8405 155.187 69.9014 166.638 53.9656C170.43 48.6951 174.232 43.4294 178.044 38.1683C179.12 36.6852 180.197 35.2001 181.291 33.7193C181.594 33.3122 181.882 32.9168 182.181 32.5262C182.292 32.3663 182.414 32.2139 182.546 32.0702C182.896 31.5435 183.122 30.5899 182.54 30.1577C181.958 29.7256 181.092 30.2777 180.726 30.7768C147.29 77.2286 113.849 123.685 80.4007 170.146C80.0335 170.654 79.7696 171.666 80.3778 172.111C80.986 172.555 81.8209 171.996 82.1813 171.492L82.2911 171.367L82.3073 171.341Z" fill="black"/>
<path fill-rule="evenodd" clip-rule="evenodd" d="M89.2436 173.242C88.8638 173.776 88.6176 174.756 89.1963 175.215C89.775 175.674 90.5995 175.146 90.9708 174.672L91.0191 174.617L91.0424 174.59C91.1838 174.428 91.3128 174.242 91.4395 174.075C91.7942 173.619 92.1346 173.165 92.4769 172.712C93.7091 171.084 94.9385 169.458 96.1651 167.836C100.407 162.219 104.647 156.605 108.883 150.995C121.545 134.193 134.202 117.382 146.853 100.564C159.599 83.6222 172.35 66.6826 185.105 49.7451C189.332 44.1459 193.556 38.5397 197.777 32.9266C198.971 31.3459 200.169 29.7615 201.371 28.1732C201.699 27.7483 202.018 27.3187 202.344 26.8957C202.454 26.7469 202.593 26.5495 202.726 26.3974C203.11 25.8702 203.357 24.8776 202.785 24.4107C202.213 23.9439 201.382 24.4794 201.018 24.9604L200.963 25.0232C200.82 25.1867 200.691 25.3727 200.562 25.5479C200.224 25.9949 199.884 26.4492 199.534 26.8989C198.315 28.5187 197.098 30.1403 195.873 31.7552C191.643 37.3737 187.416 42.995 183.192 48.6191C170.529 65.4514 157.87 82.2864 145.215 99.124C132.47 116.073 119.716 133.016 106.953 149.954C102.721 155.56 98.4908 161.163 94.263 166.763C93.0609 168.341 91.8611 169.927 90.65 171.503C90.3219 171.928 89.9956 172.351 89.6635 172.769C89.5341 172.936 89.3939 173.094 89.2436 173.242Z" fill="black"/>
<path d="M149.178 24.6425L161.269 32.765L158.52 36.8877L146.43 28.7652L149.178 24.6425ZM136.312 42.2746L150.245 51.6348L147.445 55.8346L133.512 46.4744L136.312 42.2746ZM159.738 21.8066C155.34 24.1519 148.548 26.1715 142.63 26.0453C143.017 24.4643 143.15 21.9314 143.063 20.3111C148.916 20.6172 156.094 18.1868 160.48 15.4429L164.97 18.4598C164.473 24.7083 165.37 31.7821 168 36.5059C166.257 37.1201 164.116 38.2478 162.513 39.2351C160.229 34.0747 159.281 26.9107 159.738 21.8066ZM141.483 30.1837L159.715 42.4319L148.669 59L143.986 55.8541L152.258 43.4474L143.161 37.3362L134.864 49.7815L130.412 46.7903L141.483 30.1837ZM140.563 6.805L149.737 12.9678L134.992 35.0842L125.819 28.9214L128.67 24.6446L133.468 27.8678L142.51 14.3051L137.712 11.0819L140.563 6.805ZM137.876 5L142.099 7.83642L125.222 33.1509L121 30.3145L137.876 5Z" fill="black"/>
<path d="M117.583 74.2775L126.844 80.595L124.739 83.8015L115.478 77.4841L117.583 74.2775ZM107.728 87.9913L118.4 95.2715L116.256 98.538L105.584 91.2579L107.728 87.9913ZM125.672 72.0718C122.303 73.896 117.1 75.4667 112.568 75.3686C112.864 74.1389 112.966 72.1689 112.899 70.9086C117.383 71.1467 122.88 69.2564 126.24 67.1222L129.679 69.4687C129.298 74.3286 129.985 79.8305 132 83.5046C130.665 83.9823 129.025 84.8594 127.797 85.6273C126.048 81.6136 125.321 76.0417 125.672 72.0718ZM111.689 78.5874L125.654 88.1137L117.193 101L113.607 98.5532L119.942 88.9035L112.974 84.1503L106.619 93.83L103.209 91.5036L111.689 78.5874ZM110.985 60.4039L118.011 65.1972L106.718 82.3988L99.691 77.6056L101.875 74.2791L105.55 76.786L112.476 66.2373L108.801 63.7303L110.985 60.4039ZM108.927 59L112.161 61.2061L99.234 80.8951L96 78.689L108.927 59Z" fill="black"/>
<path d="M92.1082 119.04L98.3911 123.244L96.9628 125.378L90.68 121.174L92.1082 119.04ZM85.4223 128.167L92.6626 133.012L91.2076 135.186L83.9674 130.341L85.4223 128.167ZM97.5957 117.572C95.3104 118.786 91.7807 119.831 88.7055 119.766C88.9067 118.947 88.9755 117.636 88.9304 116.797C91.9721 116.956 95.702 115.698 97.981 114.277L100.315 115.839C100.056 119.074 100.522 122.735 101.889 125.181C100.983 125.499 99.8704 126.082 99.0375 126.594C97.8507 123.922 97.3581 120.214 97.5957 117.572ZM88.1093 121.908L97.5835 128.248L91.8437 136.825L89.4104 135.197L93.7085 128.774L88.9814 125.611L84.6699 132.053L82.3562 130.505L88.1093 121.908ZM87.6315 109.806L92.3985 112.996L84.7367 124.445L79.9697 121.255L81.4513 119.041L83.9445 120.709L88.6431 113.688L86.1499 112.02L87.6315 109.806ZM86.2353 108.871L88.4293 110.34L79.6596 123.444L77.4656 121.976L86.2353 108.871Z" fill="black"/>
<path d="M59.1047 164.68L72.858 140.538L67.1458 137.472L54.5754 162.243L59.1047 164.68ZM55.2646 166.449C53.2674 165.373 51.0163 166.046 49.9445 168.047C48.8727 170.047 49.5745 172.243 51.5684 173.322C53.5622 174.402 55.7318 173.741 56.8162 171.741C57.9006 169.742 57.2618 167.524 55.2646 166.449Z" fill="black"/>
<path d="M70.3866 174.619L89.1671 154.149L84.2977 149.889L66.5138 171.231L70.3866 174.619ZM66.248 175.484C65.8672 175.129 65.4176 174.856 64.927 174.682C64.4364 174.507 63.9152 174.435 63.3957 174.47C62.8762 174.505 62.3693 174.646 61.9064 174.884C61.4436 175.123 61.0345 175.454 60.7045 175.856C59.2069 177.568 59.4066 179.862 61.1128 181.354C62.8191 182.847 65.08 182.696 66.5726 180.99C68.0652 179.284 67.9561 176.979 66.248 175.484Z" fill="black"/>
</svg>
