<svg width="118" height="117" viewBox="0 0 118 117" fill="none" xmlns="http://www.w3.org/2000/svg">
<path fill-rule="evenodd" clip-rule="evenodd" d="M8.32424 71.7188C20.2074 74.0704 29.7812 70.9929 36.0317 59.9886C33.531 73.5682 38.3147 82.4775 48.4379 87.97C36.9912 84.7543 27.7281 87.7038 21.0503 97.9206C21.7487 84.6162 17.1806 76.1649 8.32424 71.7188Z" fill="#F8F087"/>
<path fill-rule="evenodd" clip-rule="evenodd" d="M72.4878 85.1131C83.0071 87.1965 91.5001 84.4681 97.0022 74.7346C94.789 86.7399 99.0266 94.641 108 99.5C97.8633 96.6475 89.673 99.2802 83.7564 108.307C84.3799 96.5164 80.3301 89.0417 72.4878 85.1131Z" fill="#F8F087"/>
<path fill-rule="evenodd" clip-rule="evenodd" d="M40.987 32.5844C59.3207 36.2089 74.1033 31.4538 83.7034 14.5C79.8638 35.4326 87.24 49.1597 102.852 57.6476C85.1996 52.7048 70.9264 57.2804 60.6248 72.9954C61.6968 52.4394 54.654 39.4312 40.987 32.5844Z" fill="#F8F087"/>
<path d="M40.8067 30.8309C49.7012 32.576 57.7168 32.3046 64.6475 29.5475C71.5781 26.7904 77.4527 21.5643 82.096 13.3616C82.2669 13.0674 82.5465 12.8521 82.8745 12.7618C83.2026 12.6716 83.5529 12.7137 83.8502 12.8791C84.0913 13.0093 84.2832 13.2149 84.3967 13.4643C84.5101 13.7138 84.5389 13.9935 84.4786 14.2608C82.61 24.4254 83.4607 32.828 86.6621 39.6899C89.8634 46.5517 95.4239 51.9017 102.968 56.0142C103.25 56.1641 103.465 56.4128 103.574 56.7123C103.683 57.0118 103.677 57.341 103.557 57.6363C103.437 57.9317 103.213 58.1723 102.926 58.3117C102.64 58.4511 102.312 58.4794 102.005 58.3913C93.4414 55.9932 85.7219 55.8971 78.9379 58.2922C72.1539 60.6873 66.2135 65.5871 61.2215 73.1967C61.0309 73.4825 60.7358 73.6822 60.3996 73.7529C60.0634 73.8237 59.7128 73.7598 59.4232 73.575C59.2216 73.4393 59.0611 73.2511 58.9588 73.0307C58.8566 72.8102 58.8166 72.5661 58.8432 72.3246C59.3417 62.3208 57.9139 54.1769 54.6801 47.7335C51.4464 41.2901 46.4958 36.5528 39.9135 33.2363C39.6266 33.0955 39.4022 32.8532 39.2837 32.5564C39.1653 32.2596 39.1614 31.9293 39.2726 31.6297C39.3839 31.3301 39.6024 31.0825 39.8859 30.935C40.1693 30.7874 40.4975 30.7503 40.8067 30.8309ZM65.5998 31.9592C59.8922 34.2166 53.522 34.9261 46.6106 34.2891C51.0184 37.4799 54.5839 41.695 56.9993 46.571C59.9601 52.4976 61.5162 59.6983 61.5288 68.3148C66.3169 62.1611 71.8379 58.0459 78.0696 55.8485C83.4435 53.9636 89.3137 53.4984 95.6488 54.4046C90.6493 50.6528 86.8066 46.1511 84.3231 40.7885C81.5391 34.8015 80.4095 27.7889 81.1457 19.5925C76.7543 25.5566 71.5483 29.5963 65.5998 31.9592Z" fill="black"/>
<path d="M9.3089 70.0281C14.9912 71.1421 20.0989 70.9671 24.5118 69.2362C28.9247 67.5053 32.6351 64.1493 35.5883 58.9278C35.7383 58.6599 35.979 58.4543 36.267 58.348C36.5551 58.2417 36.8717 58.2418 37.1597 58.3481C37.4478 58.4544 37.6885 58.66 37.8385 58.9279C37.9885 59.1958 38.0379 59.5085 37.9779 59.8096C36.7905 66.2999 37.334 71.6636 39.3693 76.0271C41.4045 80.3906 44.9366 83.7916 49.741 86.4082C50.0411 86.5695 50.2655 86.8426 50.3655 87.1683C50.4655 87.494 50.433 87.846 50.2751 88.1479C50.1346 88.4097 49.9071 88.6141 49.6318 88.726C49.3566 88.838 49.0509 88.8503 48.7676 88.7608C43.2951 87.2292 38.4016 87.1762 34.0728 88.6872C29.7439 90.1983 26.0073 93.3304 22.8278 98.1708C22.6693 98.4184 22.4311 98.6045 22.1524 98.6982C21.8737 98.7918 21.5715 98.7874 21.2956 98.6858C21.0198 98.5841 20.787 98.3912 20.6358 98.1391C20.4846 97.887 20.4241 97.5908 20.4643 97.2996C20.7808 90.9286 19.8573 85.7259 17.8078 81.6105C15.7766 77.5982 12.4796 74.3673 8.4271 72.4178C8.27454 72.3439 8.13831 72.2402 8.02644 72.1128C7.91457 71.9854 7.82932 71.837 7.77572 71.6761C7.72211 71.5153 7.70123 71.3454 7.7143 71.1763C7.72737 71.0073 7.77414 70.8426 7.85184 70.692C7.985 70.4339 8.20109 70.2281 8.46538 70.1077C8.72966 69.9873 9.02677 69.9592 9.3089 70.0281ZM25.4477 71.626C21.936 72.9596 18.1769 73.5155 14.4296 73.2552C16.8138 75.2349 18.759 77.69 20.1409 80.4637C21.9435 84.0729 22.9504 88.4057 23.0974 93.5072C26.051 89.9766 29.4513 87.5867 33.2393 86.2577C36.4623 85.1602 39.8835 84.7679 43.2713 85.1073C40.6256 82.9334 38.4955 80.1992 37.0348 77.1022C35.3657 73.5267 34.58 69.375 34.8308 64.6326C32.3619 67.7374 29.1285 70.1473 25.4477 71.626Z" fill="black"/>
<path d="M73.462 83.5277C78.4746 84.5023 82.96 84.3596 86.8363 82.8125C90.7127 81.2653 93.965 78.3635 96.5676 73.7565C96.7377 73.4614 97.0173 73.2453 97.3457 73.155C97.6741 73.0646 98.0248 73.1074 98.3219 73.274C98.5631 73.4038 98.7554 73.6086 98.8699 73.8575C98.9844 74.1063 99.0147 74.3856 98.9564 74.6532C97.9122 80.3638 98.3817 85.083 100.177 88.9229C101.973 92.7628 105.041 95.717 109.307 98.0341C109.605 98.1972 109.828 98.4703 109.927 98.7953C110.027 99.1202 109.996 99.4714 109.841 99.7737C109.695 100.033 109.467 100.237 109.192 100.351C108.918 100.465 108.613 100.484 108.326 100.404C103.529 99.0599 99.1968 99.0006 95.4218 100.335C91.6469 101.669 88.321 104.414 85.5373 108.679C85.3767 108.926 85.137 109.111 84.8575 109.203C84.5781 109.296 84.2754 109.291 83.9992 109.189C83.7229 109.087 83.4895 108.894 83.3371 108.642C83.1848 108.391 83.1226 108.094 83.1607 107.802C83.4459 102.185 82.6315 97.6158 80.8245 94.0048C79.0527 90.4712 76.1543 87.6284 72.5871 85.9253C72.3086 85.7801 72.0924 85.5386 71.9788 85.2458C71.8651 84.953 71.8619 84.6288 71.9696 84.3338C72.0773 84.0388 72.2887 83.793 72.5642 83.6423C72.8398 83.4915 73.1607 83.4462 73.4673 83.5146L73.462 83.5277ZM87.7826 85.2268C84.7861 86.3621 81.5877 86.8674 78.3871 86.7111C80.3612 88.4247 81.9743 90.5143 83.1322 92.858C84.6835 95.9846 85.5891 99.7026 85.7612 104.078C87.8382 101.552 90.5013 99.5714 93.5187 98.3097C96.536 97.048 99.8161 96.5431 103.073 96.8391C100.874 94.9497 99.0953 92.6205 97.8514 90.0015C96.3522 86.6478 95.6759 82.9845 95.879 79.3166C93.7121 81.9186 90.9332 83.9419 87.7914 85.205L87.7826 85.2268Z" fill="black"/>
</svg>
