<svg width="107" height="104" viewBox="0 0 107 104" fill="none" xmlns="http://www.w3.org/2000/svg">
<path d="M16.18 28.1378C17.2642 28.1303 18.3526 28.127 19.4453 28.1278C21.1556 28.1206 22.8605 28.108 24.5781 28.1078C24.6342 29.2507 24.6945 32.3328 24.9821 33.2249C25.7046 35.4533 28.3548 35.2291 28.116 31.6587C28.0286 30.4646 27.9433 29.29 27.8754 28.0901C29.0479 28.0871 32.6066 28.1953 33.4882 27.9186C35.7155 27.2301 35.2904 24.7407 31.6332 24.7237C30.3658 24.7159 28.9801 24.7835 27.6914 24.7833L27.3886 19.7287C27.328 18.6377 27.2673 17.536 27.2013 16.4398C28.7155 16.3592 30.207 16.3058 31.7159 16.2306C32.8481 16.1747 34.9039 15.7949 34.7944 14.2633C34.6526 12.2265 31.0365 12.9093 29.8014 13.0029C29.2978 13.0297 27.4326 13.1756 27.0098 13.1187C26.9575 11.9865 26.7552 6.95877 25.1394 6.9554C23.7808 6.94387 23.5953 10.2734 23.6227 11.2059C23.6442 11.9115 23.7018 12.6379 23.7431 13.3486C22.4522 13.427 21.1613 13.5018 19.8615 13.5786C18.6116 13.6474 17.3547 13.7234 16.0888 13.8014L16.0828 12.461C16.0684 11.4532 15.9552 6.40597 14.3951 6.61788C12.9597 6.80969 12.8261 10.6459 12.8257 11.8256C12.8264 11.9667 12.8235 12.1044 12.826 12.2438C12.8186 12.8302 12.8164 13.4075 12.8197 13.9937C11.695 14.0674 6.88526 14.2693 6.49879 15.7507C6.1673 17.0078 9.57086 17.3349 10.2663 17.3458C11.1175 17.3664 11.9708 17.3118 12.8134 17.2539C12.8242 17.9222 12.8298 18.6078 12.8304 19.3108C12.8325 21.1672 12.8394 23.0212 12.8509 24.8727C12.758 24.8743 12.6704 24.8705 12.5812 24.8792C11.3839 24.8934 5.894 24.9377 5.74849 26.5006C5.62331 27.9005 10.5154 28.1118 11.5219 28.1207C11.8044 28.1264 12.0814 28.1268 12.3585 28.1272C12.5247 28.1261 12.7018 28.1354 12.8536 28.1309C12.8646 29.3461 12.7244 32.4103 13.0471 33.3715C13.775 35.4998 16.2553 35.2732 16.2159 31.7583C16.1997 30.5485 16.1658 29.3462 16.1639 28.1362L16.18 28.1378ZM16.1472 19.3822C16.1458 18.6011 16.1374 17.831 16.1345 17.0625C17.3486 16.9943 18.5753 16.9242 19.7949 16.8614C21.1698 16.7832 22.5501 16.7104 23.9231 16.6305C23.9949 17.648 24.036 18.6499 24.0951 19.6587L24.3816 24.803L19.5096 24.8183L16.1605 24.8422C16.155 23.0282 16.1548 21.2087 16.1475 19.3965L16.1472 19.3822Z" fill="#000900"/>
<path d="M41.5424 62.3393C42.6265 62.3319 43.715 62.3286 44.8076 62.3293C46.518 62.3221 48.2229 62.3096 49.9405 62.3093C49.9966 63.4522 50.0569 66.5343 50.3445 67.4264C51.067 69.6549 53.7172 69.4307 53.4784 65.8603C53.391 64.6661 53.3057 63.4915 53.2378 62.2917C54.4103 62.2886 57.969 62.3968 58.8506 62.1201C61.0778 61.4316 60.6528 58.9423 56.9956 58.9253C55.7282 58.9175 54.3424 58.9851 53.0538 58.9848L52.751 53.9303C52.6904 52.8393 52.6297 51.7376 52.5636 50.6413C54.0779 50.5607 55.5693 50.5073 57.0783 50.4322C58.2105 50.3762 60.2663 49.9964 60.1568 48.4648C60.015 46.428 56.3989 47.1109 55.1637 47.2044C54.6602 47.2312 52.795 47.3771 52.3722 47.3203C52.3198 46.188 52.1176 41.1603 50.5018 41.1569C49.1432 41.1454 48.9577 44.475 48.985 45.4075C49.0066 46.1131 49.0642 46.8395 49.1055 47.5501C47.8146 47.6285 46.5237 47.7034 45.2239 47.7802C43.974 47.8489 42.7171 47.9249 41.4512 48.0029L41.4452 46.6625C41.4308 45.6547 41.3176 40.6075 39.7575 40.8194C38.3221 41.0112 38.1885 44.8474 38.1881 46.0271C38.1888 46.1683 38.1859 46.306 38.1884 46.4453C38.181 47.0317 38.1787 47.6091 38.182 48.1952C37.0573 48.2689 32.2476 48.4708 31.8612 49.9523C31.5297 51.2093 34.9332 51.5365 35.6287 51.5473C36.4798 51.5679 37.3332 51.5134 38.1758 51.4554C38.1865 52.1237 38.1922 52.8094 38.1928 53.5124C38.1949 55.3688 38.2018 57.2227 38.2133 59.0742C38.1204 59.0759 38.0328 59.072 37.9436 59.0808C36.7463 59.095 31.2564 59.1392 31.1109 60.7022C30.9857 62.1021 35.8778 62.3134 36.8843 62.3222C37.1668 62.3279 37.4438 62.3284 37.7208 62.3288C37.887 62.3276 38.0642 62.3369 38.216 62.3325C38.2269 63.5476 38.0867 66.6119 38.4095 67.573C39.1374 69.7013 41.6177 69.4748 41.5783 65.9598C41.5621 64.7501 41.5281 63.5478 41.5262 62.3378L41.5424 62.3393ZM41.5096 53.5837C41.5082 52.8027 41.4998 52.0325 41.4968 51.264C42.711 51.1959 43.9377 51.1257 45.1573 51.0629C46.5322 50.9848 47.9125 50.9119 49.2855 50.832C49.3573 51.8495 49.3984 52.8515 49.4575 53.8603L49.744 59.0045L44.872 59.0198L41.5229 59.0438C41.5174 57.2297 41.5171 55.4102 41.5099 53.598L41.5096 53.5837Z" fill="#000900"/>
<path d="M80.9438 90.633C82.028 90.6256 83.1164 90.6223 84.2091 90.623C85.9194 90.6158 87.6243 90.6033 89.3419 90.603C89.3981 91.7459 89.4584 94.828 89.7459 95.7201C90.4684 97.9486 93.1186 97.7244 92.8798 94.154C92.7924 92.9598 92.7071 91.7852 92.6393 90.5854C93.8117 90.5823 97.3704 90.6905 98.252 90.4138C100.479 89.7253 100.054 87.236 96.397 87.219C95.1296 87.2112 93.7439 87.2788 92.4552 87.2785L92.1524 82.224C92.0918 81.133 92.0311 80.0313 91.9651 78.935C93.4793 78.8544 94.9708 78.801 96.4797 78.7259C97.6119 78.6699 99.6677 78.2901 99.5582 76.7585C99.4164 74.7217 95.8003 75.4046 94.5652 75.4981C94.0616 75.5249 92.1964 75.6708 91.7736 75.614C91.7213 74.4817 91.519 69.454 89.9032 69.4506C88.5446 69.4391 88.3591 72.7687 88.3865 73.7012C88.408 74.4068 88.4656 75.1332 88.5069 75.8438C87.216 75.9222 85.9251 75.9971 84.6253 76.0739C83.3754 76.1426 82.1185 76.2186 80.8527 76.2966L80.8466 74.9562C80.8322 73.9484 80.719 68.9012 79.1589 69.1131C77.7235 69.3049 77.5899 73.1411 77.5895 74.3208C77.5902 74.462 77.5873 74.5997 77.5898 74.739C77.5824 75.3254 77.5802 75.9028 77.5835 76.4889C76.4588 76.5626 71.6491 76.7645 71.2626 78.246C70.9311 79.503 74.3347 79.8302 75.0301 79.841C75.8813 79.8616 76.7347 79.8071 77.5772 79.7491C77.588 80.4174 77.5936 81.1031 77.5942 81.8061C77.5964 83.6625 77.6032 85.5164 77.6147 87.3679C77.5218 87.3696 77.4342 87.3657 77.345 87.3745C76.1477 87.3887 70.6578 87.4329 70.5123 88.9959C70.3871 90.3958 75.2793 90.6071 76.2857 90.6159C76.5682 90.6216 76.8452 90.6221 77.1223 90.6225C77.2885 90.6213 77.4656 90.6306 77.6174 90.6262C77.6284 91.8413 77.4882 94.9056 77.8109 95.8667C78.5388 97.995 81.0191 97.7685 80.9797 94.2535C80.9635 93.0438 80.9296 91.8415 80.9277 90.6315L80.9438 90.633ZM80.911 81.8774C80.9096 81.0964 80.9012 80.3262 80.8983 79.5577C82.1124 79.4896 83.3391 79.4194 84.5587 79.3566C85.9336 79.2785 87.3139 79.2056 88.6869 79.1257C88.7587 80.1432 88.7998 81.1452 88.8589 82.154L89.1454 87.2982L84.2734 87.3135L80.9244 87.3375C80.9188 85.5234 80.9186 83.7039 80.9113 81.8917L80.911 81.8774Z" fill="#000900"/>
</svg>
