<svg width="239" height="158" viewBox="0 0 239 158" fill="none" xmlns="http://www.w3.org/2000/svg">
<path d="M21.7808 124.597L47.1417 106.55L49.2991 109.406L23.9382 127.453L21.7808 124.597ZM32.1649 102.783L33.7287 99.9058C37.4933 100.596 42.2122 101.905 44.789 103.121L43.1879 106.244C40.7225 105.025 35.9328 103.584 32.1649 102.783ZM13.4432 110.247L17.1007 109.581C17.9383 119.028 16.7747 129.381 13.9326 137.244C13.1571 136.643 11.2955 135.494 10.2803 135.079C13.0814 128.087 14.2747 118.736 13.4432 110.247ZM14.7602 124.583L16.3254 119.5L16.349 119.543L33.2384 150.956L29.9042 152.749L14.7602 124.583ZM23.8475 104.879L27.1818 103.087C38.3873 122.455 49.7413 136.314 56.6963 133.367C57.9719 132.794 57.326 129.804 55.0048 124.435C56.0167 124.74 57.9127 124.795 58.6684 124.728C61.8515 132.857 61.2558 136.062 58.9273 137.2C48.6786 141.806 36.8665 126.779 23.8475 104.879ZM66.2448 87.9089L69.6229 86.0925L88.5174 121.234L85.1393 123.051L66.2448 87.9089ZM57.1904 103.466L86.4093 87.756L88.1312 90.9586L62.2466 104.876L72.2482 123.478L68.9139 125.271L57.1904 103.466ZM84.7421 88.6523L88.1203 86.836L97.4142 104.122C98.4285 106.008 98.5762 107.23 97.4115 108.534C96.2704 109.883 93.9248 111.201 90.3712 113.112C89.7206 112.217 88.4393 111.096 87.4378 110.391C90.2928 108.969 92.7496 107.648 93.4719 107.203C94.1941 106.758 94.3191 106.464 93.9889 105.85L84.7421 88.6523ZM83.0543 73.8375L85.9745 76.1132C77.5228 82.6934 62.9902 91.6381 50.9759 98.3241C50.4366 97.4264 49.3577 96.3664 48.6496 95.7857C60.681 88.9209 75.2135 79.9762 83.0543 73.8375ZM105.569 97.3051C105.04 96.7414 103.641 95.4012 102.774 94.7361C103.689 94.018 104.152 92.3551 104.751 89.9973C105.437 87.5923 107.028 78.8757 107.066 71.1635L110.929 71.4054C110.432 79.4209 109.074 87.7294 106.927 94.2562L106.998 94.3878C106.998 94.3878 105.215 96.6471 105.569 97.3051ZM105.569 97.3051L103.908 94.6355L104.961 92.5985L116.087 83.7326C116.45 84.7247 117.158 86.0408 117.556 86.6753C107.551 94.9954 106.251 96.2597 105.569 97.3051ZM99.6008 86.9409C99.0479 86.3333 97.6486 84.9931 96.782 84.328C97.5212 83.7043 97.8123 82.2471 97.9316 80.26C98.2061 78.2461 98.4738 70.75 97.4622 64.4507L101.399 64.2001C101.935 70.9815 101.708 78.3427 100.628 84.0132L100.699 84.1448C100.699 84.1448 99.2234 86.239 99.6008 86.9409ZM99.6008 86.9409L98.2124 84.4638L99.2695 82.5381L107.549 76.899C107.845 77.8708 108.418 79.1464 108.728 79.8281C101.309 85.1742 100.178 86.1215 99.6008 86.9409ZM107.421 103.379C110.749 100.628 115.546 96.2958 120.322 92.0311L122.254 94.7818C117.896 98.8781 113.274 103.116 109.848 106.315L107.421 103.379ZM107.072 62.338L124.972 52.7138L126.599 55.741L108.699 65.3652L107.072 62.338ZM124.006 53.2328L124.665 52.8789L125.228 52.3496L128.214 52.3278C128.639 62.9012 122.87 73.5247 116.058 81.2597C115.171 80.662 113.609 79.8615 112.597 79.5572C119.035 72.7025 124.571 62.4871 124.313 53.8031L124.006 53.2328ZM122.93 97.3023L148.815 83.385L150.466 86.4561L124.581 100.373L122.93 97.3023ZM127.904 79.4148L131.194 77.6457L138.153 90.588L134.862 92.3571L127.904 79.4148ZM118.132 82.0673L139.278 70.6975L140.93 73.7686L119.783 85.1383L118.132 82.0673ZM122.519 69.1893L123.067 65.8969C128.263 65.2524 135.429 64.9059 139.316 65.1917L138.892 68.9261C135.046 68.5054 127.853 68.6967 122.519 69.1893ZM147.493 44.1113L175.527 29.0382L177.108 31.9776L149.073 47.0508L147.493 44.1113ZM155.204 34.3662L157.739 31.9286C159.847 33.1141 162.289 35.0251 163.533 36.3922L160.96 39.076C159.716 37.7089 157.228 35.7102 155.204 34.3662ZM167.72 34.8192L171.361 33.5968C173.641 45.0957 167.854 53.5803 157.714 61.8598C157.05 61.2555 155.526 60.2087 154.622 59.7898C164.454 52.4109 169.998 44.7358 167.72 34.8192ZM175.456 51.4157L178.659 49.6937L188.047 67.1549L184.844 68.8768L175.456 51.4157ZM162.537 58.4182L165.74 56.6962L168.217 61.3028C170.505 65.5584 171.996 71.4869 166.286 78.8548C165.386 78.5473 163.77 78.1718 162.765 78.0902C168.113 71.3124 166.783 66.3152 164.99 62.9809L162.537 58.4182ZM155.736 41.7717C163.043 47.6835 172.607 47.8007 184.411 43.0376C184.087 44.117 183.985 45.9252 184.041 47.0824C171.627 51.5517 161.803 50.9518 153.285 44.0508L155.736 41.7717ZM136.577 47.2658L137.571 43.9602C140.584 44.0936 144.696 44.4841 146.919 45.0421L146.046 48.6784C143.82 48.009 139.725 47.4397 136.577 47.2658ZM140.631 59.96L141.649 56.6983C144.681 56.7642 148.885 57.2189 151.199 57.8411L150.302 61.4335C148.053 60.7203 143.87 60.1981 140.631 59.96ZM154.001 82.4065C154.071 78.014 153.792 70.8684 153.124 64.8932L156.798 65.5196C157.452 71.0495 157.941 77.7431 158.005 82.9116L154.001 82.4065ZM192.96 32.2202L214.677 20.5438L216.234 23.4394L194.517 35.1157L192.96 32.2202ZM190.968 46.1859L229.751 25.3336L231.402 28.4046L192.619 49.257L190.968 46.1859ZM206.883 33.5006L210.261 31.6843L218.234 46.5131C219.295 48.4874 219.288 49.7356 217.88 51.1146C216.56 52.4464 214.039 53.8584 210.047 56.0049C209.332 55.2016 207.943 54.1954 206.944 53.601C210.37 51.8724 213.353 50.2684 214.207 49.7527C215.061 49.2371 215.162 48.8998 214.808 48.2417L206.883 33.5006ZM213.668 21.0863L214.502 20.6381L215.109 20.0852L218.088 20.5763C216.732 25.2075 213.753 30.7115 210.552 34.7511C209.851 34.3931 208.502 33.9874 207.672 33.8115C210.508 30.2506 213.163 25.0906 214.022 21.7444L213.668 21.0863ZM182.434 28.2092L219.593 8.22956L224.854 18.0131L221.607 19.7586L217.951 12.9584L187.152 29.5177L190.809 36.3179L187.694 37.9927L182.434 28.2092ZM210.028 4.32371L214.063 3.62447C213.683 7.33527 212.894 11.5485 212.09 14.4696L208.912 14.7645C209.558 11.759 210.05 7.30942 210.028 4.32371ZM182.468 21.1211L184.525 18.3188C187.226 19.2415 190.37 20.7751 192.059 22.129L189.874 25.1133C188.276 23.8236 185.106 22.1348 182.468 21.1211ZM193.224 14.0936L195.51 11.5074C198.11 12.7674 201.223 14.7699 202.74 16.3295L200.35 19.1416C198.833 17.5821 195.828 15.4649 193.224 14.0936Z" fill="#6F4136"/>
</svg>
