<svg width="295" height="254" viewBox="0 0 295 254" fill="none" xmlns="http://www.w3.org/2000/svg">
<g opacity="0.89">
<path d="M251.461 166.372C252.376 164.257 252.845 161.976 252.84 159.672C252.84 159.498 252.84 159.322 252.834 159.144L252.811 158.443C252.775 157.217 252.744 156.129 252.744 155.129C252.744 151.349 253.209 148.839 255.68 144.85L256.367 143.744C258.507 140.334 267.176 136.068 267.54 131.446C267.62 130.439 267.66 129.424 267.66 128.413C267.668 124.452 267.052 120.515 265.833 116.747L264.13 112.911C263.098 110.867 262.117 108.914 262.117 106.999C262.116 106.786 262.128 106.574 262.153 106.363C262.348 104.729 263.159 103.051 264.016 101.279C265.065 99.1079 266.151 96.8634 266.406 94.2216C266.535 92.8854 266.6 91.5062 266.6 90.0995C266.6 84.3991 265.555 78.2491 263.607 72.6805C259.787 61.7975 244.992 55.3922 233.42 52.0322C233.54 51.1842 233.703 50.3527 233.703 49.4557C233.703 41.4874 229.184 31.9508 224.14 26.0471C220.336 21.595 215.234 18.2739 210.491 17.1644C208.678 16.7394 206.83 16.5698 205.04 16.4054C203.215 16.2378 201.491 16.0785 199.851 15.6709C197.706 15.1396 197.12 14.4123 195.952 12.9616L193.956 10.6916C190.267 6.99452 185.783 4.5468 180.981 3.61716C175.288 2.51282 169.504 2.33507 164.257 3.10636C161.51 3.50785 159.172 4.61116 156.913 5.67565C155.483 6.34786 154.119 6.99146 152.694 7.44708C149.406 5.14647 145.565 3.6948 143.235 2.81623C132.392 -1.27011 121.656 -0.157602 112.587 1.47387C106.447 2.57616 91.4415 6.22936 84.6173 16.292C83.0032 18.6733 82.3228 21.923 81.6659 25.0654C80.958 28.454 80.2245 31.958 78.3887 33.5568C77.4028 34.4129 75.4169 34.9686 73.4953 35.5039C71.7739 35.983 69.9923 36.4806 68.6284 37.2723C60.3975 42.0564 53.5202 51.1168 51.1052 60.3601C49.8149 65.2934 50.5709 69.0875 52.4332 72.0788C47.0188 73.8982 44.0113 80.4558 42.8712 85.3461C42.6646 86.246 42.5618 87.1667 42.5647 88.0901C42.5647 90.0658 42.9815 91.9925 43.3881 93.8763L43.7068 95.3924L43.9112 96.414C44.1308 97.4846 44.2697 98.1598 44.2697 98.7013C44.2697 99.6268 43.8611 100.159 42.7701 101.6C39.362 106.084 37.4057 109.893 37.4057 115.852C37.4057 116.791 37.4558 117.785 37.5549 118.843C38.1157 124.837 41.4369 131.728 46.7491 134.371C46.2567 135.868 45.891 136.721 45.1207 138.347C43.0837 142.65 40.0792 146.472 41.2714 149.443C43.2124 154.28 45.5232 157.352 48.9956 158.552C51.1481 159.298 53.4129 159.725 55.6022 160.14C62.7216 161.49 66.7845 162.604 67.1298 169.499C67.0276 169.832 66.9255 170.163 66.8294 170.501C64.4491 179.073 65.5524 189.161 69.8564 198.176C73.6363 206.106 86.5185 209.292 95.0804 212.51C96.0836 215.185 98.1012 218.506 99.5968 220.564C100.873 222.321 102.078 223.98 102.878 225.75C104.584 229.525 106.23 234.338 107.509 239.302C109.058 245.309 109.315 248.557 109.606 253.359L112.177 253.203C111.876 248.23 111.58 244.77 110.004 238.66C108.689 233.552 106.991 228.594 105.225 224.688C104.317 222.679 102.977 220.834 101.681 219.05C100.413 217.306 99.2055 215.636 98.4118 213.885C101.802 215.417 105.014 216.889 107.92 218.712C110.507 220.336 111.654 222.462 112.982 224.925C113.805 226.458 114.659 228.04 115.921 229.632C120.007 234.786 126.799 234.911 132.717 234.622L132.047 234.934C132.923 236.808 133.906 238.604 134.856 240.341C137.439 245.062 139.938 248.008 140 253.5H142.028C141.959 247.371 139.737 243.895 137.116 239.104C136.298 237.617 135.481 236.079 134.717 234.515L135.868 234.452C143.759 234.043 148.819 229.938 152.921 224.755C155.02 223.895 156.944 222.672 158.8 221.47C160.784 220.186 162.658 218.975 164.718 218.201C168.107 216.929 172.319 216.478 176.037 216.079L176.543 216.026L183.898 215.612C188.965 215.446 194.206 215.276 198.813 213.727C209.037 210.289 217.713 199.267 222.429 188.363C225.832 188.395 227.545 185.94 229.113 183.176C230.85 180.111 231.72 179.805 235.528 178.822C241.311 177.335 247.067 173.832 250.265 168.658C272.933 179.888 291.345 226.054 290.5 253.5H294C294.87 225.342 274.906 178.086 251.461 166.372ZM234.783 175.782C230.711 176.827 228.812 177.466 226.462 181.605C225.423 183.438 224.651 184.452 223.793 184.918C224.333 183.404 224.795 181.907 225.162 180.452C226.881 173.637 225.2 166.798 225.2 161.057C225.2 161.057 223.734 173.554 222.19 179.671C219.086 191.97 209.137 206.958 197.858 210.75C193.67 212.159 188.65 212.321 183.801 212.479L176.218 212.909L175.707 212.964C171.813 213.38 167.398 213.853 163.652 215.261C161.287 216.147 159.185 217.509 157.152 218.822L157.029 218.901C157.438 218.268 157.847 217.634 158.255 216.999L160.923 209.399L155.687 215.283C150.354 223.606 145.748 230.793 135.708 231.322L134.4 231.393C128.805 231.716 121.843 232.114 118.308 227.66C117.219 226.286 116.434 224.826 115.672 223.415C114.947 222.068 114.203 220.7 113.209 219.407C114.231 219.575 115.268 219.632 116.303 219.578L122.059 218.871L126.579 218.264C128.105 218.126 129.586 218.5 131.156 218.893C132.871 219.325 139.795 218.995 141.734 218.791C141.734 218.791 133.664 217.806 132.14 217.421C130.397 216.982 129.189 216.062 127.153 216.246L122.17 216.757L116.704 217.433C114.457 217.564 110.129 217.043 108.924 215.075C105.464 209.425 108.61 206.161 110.13 205.015L110.948 204.864C112.343 204.762 112.915 205.051 114.704 206.153C116.095 207.009 117.059 208.864 119.199 208.612C120.892 208.415 122.285 207.857 123.514 207.365C125.28 206.659 127.828 204.927 129.87 205.314L133.579 206.327C135.741 207.006 137.399 207.902 139.811 207.9L141.82 207.048C143.901 206.786 148.622 207.334 150.745 208.227C150.745 208.227 145.619 205.623 143.395 205.902L139.388 206.618C137.439 206.618 135.363 205.146 133.331 204.507L129.653 204.184C126.745 203.633 124.788 205.444 122.926 206.188C121.769 206.651 119.947 206.523 118.65 206.677C117.551 206.806 116.519 206.171 115.325 205.436C113.588 204.363 110.162 201.986 108.656 205.145C108.503 205.242 108.368 205.365 108.257 205.508C106.845 207.502 105.672 211.193 106.473 214.306C104.123 213.056 101.659 211.931 99.2474 210.841C91.2034 207.207 75.6825 205.457 71.9261 197.583C67.9491 189.249 67.5936 179.194 69.7706 171.354C70.4377 168.954 71.3244 166.609 72.1836 164.341C74.3432 158.642 83.8225 151.839 82.6967 144.669C81.9356 139.817 79.8628 135.242 77.8585 130.819C77.3906 129.788 76.5927 128.314 75.7295 126.798L70.5889 111.964C70.219 110.672 69.8635 109.42 69.555 108.184C70.5055 108.873 71.6263 109.291 72.7964 109.39C73.9666 109.49 75.1418 109.269 76.1953 108.75C78.4173 107.659 80.4696 107.626 82.7468 108.354C93.3815 111.759 96.8865 121.954 99.9492 125.327C101.541 127.078 102.071 129.692 103.799 130.352C103.929 131.418 104.128 132.702 104.424 134.082C101.783 130.355 98.5844 126.726 94.7371 124.978C92.461 123.104 90.0685 120.653 87.3817 120.166C85.4407 119.813 83.5681 120.327 81.9959 121.643C79.4235 123.797 78.216 127.54 78.1568 130.293C78.1568 130.293 81.6108 125.044 83.0185 123.866C83.9052 123.123 85.7768 123.056 86.8423 123.253C87.6024 123.392 88.3849 123.714 89.1776 124.14C87.5614 124.382 86.062 125.126 84.8911 126.266C82.1389 128.993 82.283 133.016 82.4004 136.25L82.4474 138.153C82.4474 138.153 82.6906 137.233 83.0747 135.962L85.9903 144.775C88.3788 148.076 91.3526 152.186 97.1051 150.919C100.943 150.074 106.31 145.902 106.516 141.259L107.62 142.197C108.134 142.945 108.751 143.616 109.451 144.193C110.626 145.136 112.575 145.512 114.325 145.493C115.209 150.113 114.688 153.841 110.721 155.651C106.268 157.679 101.424 160.334 99.3138 164.627C96.1806 170.98 99.889 174.784 104.142 177.704C101.98 177.576 98.7458 177.72 99.4997 179.843C100.612 182.974 105.509 182.974 105.509 182.974C105.509 182.974 100.181 179.59 106.962 179.521C108.86 180.702 114.394 183.287 115.748 184.54C115.748 184.54 111.253 179.494 109.294 178.277C103.645 174.76 98.7407 170.712 101.282 165.556C102.951 162.171 107.648 158.813 111.74 156.945C117.666 154.243 117.622 151.012 116.565 145.918C117.655 146.317 118.788 146.466 119.861 146.604C120.835 146.73 124.73 145.481 126.093 145.548C125.006 145.385 121.129 144.8 120.181 144.679C117.68 144.356 116.237 144.408 115.192 142.329C113.131 138.233 112.236 131.871 112.378 126.801L111.994 116.429L110.518 125.827C110.364 131.271 110.19 137.442 112.612 142.256C112.826 142.683 113.073 143.093 113.352 143.481C112.445 143.209 111.594 142.776 110.839 142.202C107.766 139.734 106.067 132.347 105.85 127.98L105.721 120.022C105.466 101.886 98.8143 93.0121 98.8143 93.0121C100.366 96.6898 101.604 102.309 102.405 107.816C98.5425 102.922 93.408 98.0291 87.205 95.754C81.6526 93.717 75.8735 94.0367 70.4939 96.6806C69.9328 96.9577 69.4144 97.3138 68.9543 97.7379C69.1262 96.9019 69.3552 96.0786 69.6398 95.2739C69.6868 95.1421 69.7256 95.0123 69.7757 94.8795C71.0281 91.5706 72.8537 88.56 74.7814 85.3706C77.7992 80.3873 79.9272 76.5962 80.6229 70.3053C91.7725 78.9673 107.38 82.1669 120.465 77.6862C123.938 76.4961 127.36 76.4603 130.979 76.4184C135.566 76.3684 140.307 76.3163 145.219 73.7919C147.942 72.3913 150.211 70.4422 152.406 68.5573L156.228 65.4517C158.907 63.5107 160.51 64.0419 163.42 64.994L167.025 66.0156C170.519 66.7463 174.065 67.1979 177.631 67.3662C180.722 78.1541 185.739 85.1908 193.363 89.4324C197.387 91.6677 202.361 93.1101 207.548 93.764C207.416 100.123 211.736 105.487 217.163 109.009C219.45 119.69 212.352 130.769 205.265 135.715L201.58 138.289L206.037 138.571C212.939 139.006 219.964 135.948 225.831 131.203C225.487 132.429 224.282 134.039 223.325 135.319C222.398 136.556 222.517 138.908 222.131 139.924C222.131 139.924 224.675 136.381 225.393 135.423C227.186 133.03 229.905 131.359 228.611 128.746C233.025 124.495 236.54 119.333 238.473 114.21C240.015 114.124 241.551 113.943 243.07 113.668C249.054 119.221 247.183 124.953 244.825 132.163C244.03 134.595 243.208 137.109 242.68 139.736L242.052 144.844C241.737 148.57 241.439 152.089 239.411 154.66C237.383 157.23 231.294 159.759 228.666 157.791C228.053 157.334 224.693 155.783 224.693 155.783C224.562 157.512 225.367 159.207 226.849 160.316C231.162 163.546 238.892 160.304 241.801 156.624C244.421 153.311 244.771 149.142 245.111 145.113L245.689 140.364C246.185 137.912 246.978 135.491 247.745 133.146C250.135 125.841 253.292 119.865 245.906 113.021C247.146 112.693 248.365 112.291 249.556 111.816C249.556 111.816 232.429 111.844 224.82 109.275C219.041 107.322 210.62 101.686 210.614 94.0428C217.526 94.4811 224.561 93.5167 230.043 91.0455C230.043 91.0455 206.589 93.529 194.831 86.6731C188.266 82.8442 183.725 76.8179 180.853 67.4336C186.335 67.4193 191.643 66.7042 196.461 65.2883C196.461 65.2883 177.329 64.9746 167.642 62.9447L164.356 62.008C161.284 61.0037 158.382 60.0547 154.447 62.8957L150.421 66.1597C148.268 68.0108 146.232 69.7567 143.83 70.9928C139.555 73.1902 135.372 73.2403 130.94 73.2852C127.242 73.3261 123.364 73.2127 119.482 74.7155C96.5126 83.6135 73.1633 62.7752 73.1633 62.7752C74.7661 64.8986 76.5802 66.8541 78.5777 68.6115C77.9208 74.2149 75.1288 78.8365 72.1693 83.7228C70.2507 86.8897 68.2658 90.169 66.9111 93.7486C66.7937 94.0551 66.6936 94.3616 66.5924 94.6681C64.3715 101.366 65.958 106.947 67.6426 112.836L73.8099 128.314C74.1695 129.701 74.5751 131.012 75.0808 132.127C77.0872 136.552 78.9812 140.732 79.6779 145.158C80.6729 151.492 71.4378 157.65 69.3333 163.208C69.223 163.498 69.1127 163.795 69.0013 164.088C66.6139 159.038 61.1351 157.996 56.1641 157.053C54.079 156.659 51.9245 156.251 49.9814 155.58C47.3907 154.683 46.0238 154.505 44.4414 150.574C42.579 145.935 48.4828 137.323 50.009 134.229L50.8181 132.594L49.1049 132.038C44.4393 130.52 41.1222 123.985 40.6125 118.546C39.9729 111.744 41.5819 108.281 45.1994 103.52C47.6256 100.327 47.6808 99.4951 46.9187 95.7765L46.7144 94.7723L46.3854 93.2021C45.842 90.69 45.3291 88.3179 45.8542 86.0694C46.8186 81.9228 50.2368 76.1876 54.5101 74.7042C56.9772 77.2153 60.2484 79.0317 63.3918 80.4803C63.3918 80.4803 51.4893 72.9205 54.0708 61.1662C55.9506 52.6094 62.597 44.3835 70.1496 39.9938C71.1712 39.3982 72.7669 38.9538 74.3054 38.5237C76.5529 37.8975 78.8749 37.2488 80.3808 35.9381C83.0103 33.6487 83.8542 29.6186 84.6714 25.7222C85.265 22.8802 85.881 19.9411 87.1457 18.0767C93.312 8.98457 107.363 5.59495 113.12 4.55906C121.787 3.00114 131.748 2.73451 142.173 5.75534C155.358 9.573 158.808 18.0798 158.808 18.0798C159.005 14.6963 157.595 11.9829 155.499 9.81308C156.352 9.49128 156.941 9.11431 158.199 8.52077C160.354 7.50429 162.388 6.54604 164.692 6.2079C169.609 5.48666 175.042 5.65624 180.407 6.69724C184.607 7.51451 188.548 9.66597 191.806 12.9289L193.581 14.9547C194.872 16.5555 195.987 17.9377 199.127 18.7172C200.988 19.179 202.907 19.3557 204.764 19.5273C206.529 19.6888 208.194 19.842 209.804 20.219C213.877 21.1711 218.488 24.1939 221.825 28.1066C227.335 34.5549 231.999 45.5461 230.272 52.7789L229.913 54.2878L231.388 54.6668C242.784 57.6049 257.063 63.3299 260.707 73.7409C262.99 80.2596 263.951 87.615 263.342 93.9223C263.137 95.9971 262.224 97.8942 261.253 99.9006C260.319 101.829 259.354 103.824 259.096 105.992C258.729 109.071 260.142 111.876 261.39 114.349L262.913 117.746C264.295 121.964 264.834 126.617 264.472 131.203C264.165 135.045 255.865 138.726 253.774 142.066L253.074 143.189C249.45 149.041 249.55 152.418 249.735 158.548L249.755 159.248C250.03 168.538 241.86 173.96 234.783 175.782ZM93.1302 127.67C98.2217 129.755 102.827 135.874 105.854 140.701L106.16 140.964C105.118 142.924 101.626 148.824 97.1521 149.246C93.456 149.595 90.5006 148.725 87.6228 143.636L84.0636 132.917C84.7787 130.891 85.6348 128.877 86.4132 128.109C87.8608 126.674 90.8755 126.746 93.1302 127.67ZM208.699 135.808C214.856 130.108 220.02 122.195 220.02 115.062C220.02 113.561 220.073 112.07 219.918 110.592C221.188 111.238 222.502 111.792 223.851 112.251C227.495 113.468 231.299 114.14 235.139 114.246C231.145 123.814 221.54 135.245 208.699 135.808Z" fill="#010101"/>
<path d="M95.1917 181.215C94.5297 180.307 96.9734 170.254 96.9734 170.254C96.8467 171.062 94.7381 174.059 94.2151 175.247C93.7043 176.409 93.1659 177.64 92.8564 178.845L92.7409 178.679C92.2884 182.631 88.0968 186.627 85.4284 189.392C87.5799 188.292 92.1709 185.998 94.0853 183.773C95.4471 184.536 97.9326 184.625 100.085 184.741C100.082 184.737 95.4982 181.646 95.1917 181.215Z" fill="#010101"/>
<path d="M121.187 114.017C122.051 101.24 130.688 86.4617 130.688 86.4617C123.208 94.619 120.807 102.742 119.354 113.205C117.878 123.829 118.314 132.492 120.648 138.959L122.216 138.156C120.053 132.182 120.425 125.369 121.187 114.017Z" fill="#010101"/>
<path d="M125.565 145.549L125.858 145.593C125.762 145.566 125.664 145.551 125.565 145.549Z" fill="#010101"/>
<path d="M179.871 124.938C178.509 123.246 177.103 121.498 175.506 120.183C172.74 117.908 168.769 116.266 163.368 115.164C155.522 113.56 150.682 116.594 145.49 121.722C144.087 122.742 142.765 123.869 141.535 125.093C139.315 127.301 138.547 130.68 137.806 133.947C137.049 137.288 135.523 144.276 135.523 144.276C138.732 142.757 139.176 138.249 139.933 134.475C141.574 138.71 144.47 140.946 144.47 140.946C141.83 135.913 141.374 131.937 141.381 129.739C141.994 128.352 142.73 127.124 143.574 126.286C145.849 124.022 150.546 121.198 155.75 120.667C159.933 120.241 164.562 122.046 167.83 125.377C169.82 127.405 171.099 129.851 172.415 132.447C171.261 137.436 167.716 144.121 160.586 145.204C154.355 146.151 150.52 144.625 145.493 141.424L139.67 140.902L144.451 142.86C149.688 146.194 154.211 149.073 161.585 147.253C167.143 145.88 172.691 140.667 174.308 134.879C176.434 137.032 179.58 139.534 179.58 139.534C178.289 137.797 176.311 133.313 175.283 131.295C173.863 128.504 172.396 125.613 169.996 123.167C167.415 120.536 164.203 118.735 160.852 117.94C161.474 118.011 162.108 118.102 162.764 118.237C167.6 119.225 171.238 120.7 173.575 122.63C174.929 123.743 176.231 125.364 177.496 126.933C179.154 128.992 184.567 131.515 184.567 131.515C182.94 130.448 181.443 126.887 179.871 124.938Z" fill="#010101"/>
<path d="M229.428 144.209L231.029 144.079C233.941 143.875 237.567 143.615 239.55 141.09C240.747 139.569 241.158 137.451 240.776 134.793C240.776 134.793 238.554 139.104 237.916 139.917C236.768 141.374 233.255 140.781 230.821 140.954L229.127 141.092C226.579 141.353 224.896 142.114 223.828 143.496C222.244 145.539 222.47 148.409 222.898 151.668C222.898 151.668 225.479 146.41 226.236 145.437C226.743 144.779 227.794 144.377 229.428 144.209Z" fill="#010101"/>
<path d="M131.016 182.78C133.375 182.706 135.706 182.242 137.914 181.409C141.476 180.039 136.801 177.69 132.795 176.518C128.79 175.345 122.558 179.844 122.558 179.844L121.892 181.019C121.892 181.019 124.561 180.236 129.902 179.844C135.243 179.452 131.016 182.78 131.016 182.78Z" fill="#010101"/>
<path d="M118.429 196.04C119.572 195.927 120.484 195.366 121.07 194.419C121.07 194.419 118.662 194.849 117.989 194.914C116.548 195.056 114.67 194.199 113.768 193.218C112.769 192.135 112.389 191.448 113.513 190.347C114.903 188.987 116.743 187.669 115.902 185.137C115.902 185.137 114.609 187.859 113.209 189.23C111.666 190.74 111.204 191.854 112.954 193.751C114.114 195.008 116.425 196.237 118.429 196.04Z" fill="#010101"/>
<path d="M182.625 88.3353C167.418 83.9813 154.444 85.3001 144.038 92.2469C127.396 103.368 124.321 124.796 124.201 125.703C123.648 129.798 126.448 133.569 130.462 134.148C134.476 134.728 138.196 131.876 138.783 127.783C138.805 127.626 141.152 112.066 152.184 104.757C158.858 100.338 167.576 102.116 178.459 105.235C182.374 106.359 187.449 102.562 188.549 98.5695C189.65 94.5772 186.54 89.457 182.625 88.3353Z" fill="#010101"/>
<path d="M94.7352 159.235C102.993 158.969 107.465 151.499 107.651 151.181C107.651 151.181 102.083 157.462 94.6851 157.702C87.4901 157.933 83.984 149.938 83.984 149.938C84.0055 150.037 86.2683 159.507 94.7352 159.235Z" fill="#010101"/>
<path d="M158.172 155.909C147.428 155.681 141.36 147.827 141.36 147.827C141.565 148.21 146.468 157.196 158.139 157.445C170.576 157.709 175.71 143.516 175.764 143.373C175.764 143.373 169.489 156.15 158.172 155.909Z" fill="#010101"/>
<path d="M91.0727 141.329C93.4336 141.329 93.8126 139.415 93.8126 137.053C93.8126 134.691 93.4336 132.776 91.0727 132.776C88.7119 132.776 87.6729 134.8 87.6729 137.162C87.6729 139.524 88.7108 141.329 91.0727 141.329ZM91.7306 134.092C92.7604 134.092 92.4979 134.926 92.4979 135.955C92.4979 136.985 92.7604 137.82 91.7306 137.82C90.7009 137.82 90.4148 136.986 90.4148 135.956C90.4148 134.927 90.6968 134.092 91.7306 134.092Z" fill="#010101"/>
<path d="M158.922 133.781C158.922 132.795 158.629 131.831 158.081 131.01C157.533 130.19 156.754 129.551 155.842 129.173C154.931 128.796 153.928 128.697 152.96 128.89C151.993 129.083 151.104 129.558 150.406 130.256C149.709 130.953 149.234 131.842 149.041 132.81C148.849 133.777 148.948 134.78 149.325 135.692C149.703 136.603 150.342 137.382 151.163 137.93C151.983 138.478 152.947 138.771 153.934 138.771C154.589 138.771 155.238 138.642 155.843 138.391C156.448 138.14 156.998 137.773 157.462 137.309C157.925 136.846 158.292 136.296 158.543 135.691C158.794 135.085 158.922 134.437 158.922 133.781ZM152.527 132.503C152.527 132.073 152.654 131.653 152.893 131.295C153.132 130.937 153.472 130.658 153.869 130.493C154.267 130.328 154.704 130.285 155.126 130.369C155.548 130.453 155.936 130.66 156.24 130.965C156.544 131.269 156.752 131.656 156.835 132.078C156.919 132.5 156.876 132.938 156.711 133.335C156.547 133.733 156.268 134.072 155.91 134.311C155.552 134.55 155.131 134.678 154.701 134.677C154.125 134.677 153.572 134.448 153.164 134.041C152.756 133.633 152.527 133.08 152.527 132.503Z" fill="#010101"/>
<path d="M123.733 196.597L120.584 198.074C118.085 198.951 116.361 199.49 114.073 197.992C112.438 196.926 109.962 195.847 108.59 196.221C106.282 196.848 106.221 198.25 106.734 201.192L107.755 203.235C107.755 203.235 107.384 197.439 108.385 197.166C108.868 197.036 112.159 197.895 113.01 198.454C116.548 200.77 118.685 200.022 121.387 199.074L123.526 198.373C131.227 194.519 149.442 206.277 149.442 206.277C144.046 201.403 131.277 194.406 123.733 196.597Z" fill="#010101"/>
<path d="M40.7922 60.0669C40.4919 47.2562 46.5581 33.0633 60.5885 32.1572C61.4975 32.0984 62.346 31.6809 62.9472 30.9966C63.5484 30.3122 63.8531 29.4171 63.7943 28.5081C63.7355 27.5991 63.318 26.7506 62.6336 26.1494C61.9493 25.5483 61.0542 25.2435 60.1452 25.3023C41.5952 26.4996 33.5492 44.2436 33.9241 60.2222C33.9447 61.133 34.3263 61.9982 34.9848 62.6277C35.6434 63.2571 36.525 63.5992 37.4358 63.5786C38.3466 63.558 39.2119 63.1765 39.8413 62.5179C40.4708 61.8593 40.8128 60.9777 40.7922 60.0669Z" fill="#010101"/>
<path d="M4.40854 25.7498C3.53489 25.4915 2.59445 25.591 1.7941 26.0262C0.993759 26.4613 0.399071 27.1966 0.140864 28.0703C-0.117343 28.9439 -0.0179187 29.8844 0.417266 30.6847C0.85245 31.4851 1.58775 32.0798 2.4614 32.338C9.07208 34.2912 17.633 38.6698 20.003 44.5786C21.1033 47.3236 20.7468 50.2147 18.913 53.4153C18.4652 54.2054 18.3484 55.1406 18.5884 56.0165C18.8283 56.8924 19.4053 57.6376 20.1933 58.0891C20.9812 58.5406 21.916 58.6617 22.7929 58.4258C23.6699 58.1899 24.4178 57.6163 24.873 56.8305C27.7385 51.8308 28.2595 46.7096 26.3777 42.0175C22.2505 31.7281 8.5194 26.9675 4.40854 25.7498Z" fill="#010101"/>
<path d="M51.6814 16.9559C52.487 16.5464 53.0987 15.8359 53.384 14.9784C53.6693 14.1209 53.6051 13.1855 53.2053 12.375C52.8056 11.5645 52.1025 10.9442 51.2485 10.6486C50.3945 10.353 49.4584 10.4059 48.6432 10.7958C47.1353 11.5395 45.4527 12.5784 43.6721 13.6787C39.7237 16.1182 34.3185 19.4588 31.0045 18.9828C24.1598 17.9969 21.1359 14.4377 16.9556 9.51266L15.3629 7.65133C15.0703 7.30958 14.713 7.02904 14.3116 6.82583C13.9102 6.62262 13.4726 6.50076 13.0239 6.46725C12.5752 6.43374 12.1244 6.48923 11.6972 6.63055C11.2701 6.77187 10.8751 6.99622 10.5349 7.29071C9.84309 7.88837 9.41642 8.73593 9.34844 9.64765C9.28046 10.5594 9.57671 11.4608 10.1723 12.1545L11.719 13.9627C16.2885 19.3454 20.6067 24.4299 30.0268 25.7855C35.8079 26.614 42.1714 22.6819 47.2793 19.5222C48.921 18.5108 50.4677 17.5556 51.6814 16.9559Z" fill="#010101"/>
<path d="M219.641 213.657C223.851 224.895 228.621 239.543 228.147 253.234L230.721 253.322C231.212 239.178 226.346 224.207 222.053 212.753L219.641 213.657Z" fill="#010101"/>
<path d="M269.044 201.468L266.534 202.045C269.373 214.396 269.946 224.122 269.935 234.926V253.277H272.511V234.929C272.523 223.949 271.937 214.057 269.044 201.468Z" fill="#010101"/>
<path d="M149.298 178.06C148.921 174.905 146.642 171.745 142.641 169.019C142.641 169.019 148.142 177.229 146.592 181.412C145.361 184.744 134.875 186.127 134.875 186.127C140.339 187.361 146.575 186.586 148.637 182.212C151.702 184.554 158.51 187.307 160.211 188.045C155.987 185.235 152.981 181.386 149.298 178.06Z" fill="#010101"/>
<path d="M147.262 198.55C156.089 199.135 153.018 210.291 153.018 210.291C159.735 194.438 147.262 198.55 147.262 198.55Z" fill="#010101"/>
</g>
</svg>
